<?xml version="1.0" encoding="utf-8"?>
<!-- Generator: Adobe Illustrator 24.1.2, SVG Export Plug-In . SVG Version: 6.00 Build 0)  -->
<svg version="1.1" id="Layer_1" xmlns="http://www.w3.org/2000/svg" xmlns:xlink="http://www.w3.org/1999/xlink" x="0px" y="0px"
	 viewBox="0 0 120 120" style="enable-background:new 0 0 120 120;" xml:space="preserve">
<style type="text/css">
	.st0{fill:#8b2030;}
	.st1{fill:#FFFFFF;}
</style>
<path class="st0" d="M120,60c0,33.1-26.9,60-60,60C26.9,120,0,93.1,0,60C0,26.9,26.9,0,60,0C93.1,0,120,26.9,120,60"/>
<path class="st1" d="M35.3,55.8C27.2,57,8.5,59.9,7.7,60c-0.9,0.1-1.6,0.9-1.6,1.9c0,1,0.9,2,2,1.9c0.5,0,28.3-1.6,40.2-2.3
	C44.5,59.8,38.5,57.2,35.3,55.8"/>
<path class="st1" d="M51.8,82.1c-0.9,0-1.6,0.7-1.6,1.6c0,0.9,0.7,1.6,1.6,1.6c0.9,0,1.6-0.7,1.6-1.6C53.4,82.8,52.7,82.1,51.8,82.1
	"/>
<path class="st1" d="M60,82.1c-0.9,0-1.6,0.7-1.6,1.6c0,0.9,0.7,1.6,1.6,1.6c0.9,0,1.6-0.7,1.6-1.6C61.6,82.8,60.9,82.1,60,82.1"/>
<path class="st1" d="M68.2,82.1c-0.9,0-1.6,0.7-1.6,1.6c0,0.9,0.7,1.6,1.6,1.6c0.9,0,1.6-0.7,1.6-1.6C69.8,82.8,69,82.1,68.2,82.1"
	/>
<path class="st1" d="M76.3,82.1c-0.9,0-1.6,0.7-1.6,1.6c0,0.9,0.7,1.6,1.6,1.6c0.9,0,1.6-0.7,1.6-1.6C77.9,82.8,77.2,82.1,76.3,82.1
	"/>
<path class="st1" d="M84.5,82.1c-0.9,0-1.6,0.7-1.6,1.6c0,0.9,0.7,1.6,1.6,1.6c0.9,0,1.6-0.7,1.6-1.6C86.1,82.8,85.4,82.1,84.5,82.1
	"/>
<path class="st1" d="M92.6,82.1c-0.9,0-1.6,0.7-1.6,1.6c0,0.9,0.7,1.6,1.6,1.6c0.9,0,1.6-0.7,1.6-1.6C94.2,82.8,93.5,82.1,92.6,82.1
	"/>
<path class="st1" d="M100.8,82.1c-0.9,0-1.6,0.7-1.6,1.6c0,0.9,0.7,1.6,1.6,1.6c0.9,0,1.6-0.7,1.6-1.6
	C102.4,82.8,101.7,82.1,100.8,82.1"/>
<path class="st1" d="M43.7,82.1c-0.9,0-1.6,0.7-1.6,1.6c0,0.9,0.7,1.6,1.6,1.6c0.9,0,1.6-0.7,1.6-1.6C45.3,82.8,44.6,82.1,43.7,82.1
	"/>
<path class="st1" d="M35.5,82.1c-0.9,0-1.6,0.7-1.6,1.6c0,0.9,0.7,1.6,1.6,1.6c0.9,0,1.6-0.7,1.6-1.6C37.1,82.8,36.4,82.1,35.5,82.1
	"/>
<path class="st1" d="M27.4,82.1c-0.9,0-1.6,0.7-1.6,1.6c0,0.9,0.7,1.6,1.6,1.6c0.9,0,1.6-0.7,1.6-1.6C29,82.8,28.2,82.1,27.4,82.1"
	/>
<path class="st1" d="M19.2,82.1c-0.9,0-1.6,0.7-1.6,1.6c0,0.9,0.7,1.6,1.6,1.6c0.9,0,1.6-0.7,1.6-1.6C20.8,82.8,20.1,82.1,19.2,82.1
	"/>
<path class="st1" d="M55.9,87.7c-0.9,0-1.6,0.7-1.6,1.6c0,0.9,0.7,1.6,1.6,1.6c0.9,0,1.6-0.7,1.6-1.6C57.5,88.5,56.8,87.7,55.9,87.7
	"/>
<path class="st1" d="M64.1,87.7c-0.9,0-1.6,0.7-1.6,1.6c0,0.9,0.7,1.6,1.6,1.6c0.9,0,1.6-0.7,1.6-1.6C65.7,88.5,65,87.7,64.1,87.7"
	/>
<path class="st1" d="M72.2,87.7c-0.9,0-1.6,0.7-1.6,1.6c0,0.9,0.7,1.6,1.6,1.6c0.9,0,1.6-0.7,1.6-1.6C73.8,88.5,73.1,87.7,72.2,87.7
	"/>
<path class="st1" d="M80.4,87.7c-0.9,0-1.6,0.7-1.6,1.6c0,0.9,0.7,1.6,1.6,1.6c0.9,0,1.6-0.7,1.6-1.6C82,88.5,81.3,87.7,80.4,87.7"
	/>
<path class="st1" d="M88.6,87.7c-0.9,0-1.6,0.7-1.6,1.6c0,0.9,0.7,1.6,1.6,1.6c0.9,0,1.6-0.7,1.6-1.6C90.2,88.5,89.5,87.7,88.6,87.7
	"/>
<path class="st1" d="M96.7,87.7c-0.9,0-1.6,0.7-1.6,1.6c0,0.9,0.7,1.6,1.6,1.6c0.9,0,1.6-0.7,1.6-1.6C98.3,88.5,97.6,87.7,96.7,87.7
	"/>
<path class="st1" d="M47.8,87.7c-0.9,0-1.6,0.7-1.6,1.6c0,0.9,0.7,1.6,1.6,1.6c0.9,0,1.6-0.7,1.6-1.6C49.4,88.5,48.6,87.7,47.8,87.7
	"/>
<path class="st1" d="M39.6,87.7c-0.9,0-1.6,0.7-1.6,1.6c0,0.9,0.7,1.6,1.6,1.6c0.9,0,1.6-0.7,1.6-1.6C41.2,88.5,40.5,87.7,39.6,87.7
	"/>
<path class="st1" d="M31.4,87.7c-0.9,0-1.6,0.7-1.6,1.6c0,0.9,0.7,1.6,1.6,1.6c0.9,0,1.6-0.7,1.6-1.6C33,88.5,32.3,87.7,31.4,87.7"
	/>
<path class="st1" d="M23.3,87.7c-0.9,0-1.6,0.7-1.6,1.6c0,0.9,0.7,1.6,1.6,1.6c0.9,0,1.6-0.7,1.6-1.6C24.9,88.5,24.2,87.7,23.3,87.7
	"/>
<path class="st1" d="M109.7,53.9c-3.1-0.4-6,1.8-6.5,4.9c-0.4,3.1,1.8,6,4.9,6.5c3.1,0.4,6-1.8,6.5-4.9
	C115,57.2,112.8,54.3,109.7,53.9"/>
<path class="st1" d="M77.9,52c-0.5-1.4-1.7-2.5-3.2-2.8c-2.5-0.6-5,0.9-5.7,3.4c-0.3,1.1-0.1,2.2,0.3,3.2c2.6,4.7,5.7,10.1,8.6,15
	c0.5,0.7,1.2,1.3,2.1,1.4c7.7,1,16.4,1.8,20.3,2.2c0.1,0,0.1,0,0.2,0c0.8,0,1.6-0.8,1.6-1.7c0-0.5-0.3-1-0.7-1.3
	c0,0-0.1-0.1-0.1-0.1c-4-2.6-10.4-6.8-14.7-9.5c-2.2-3.2-4.2-6-6.5-8.9c1.6,4.3,2.8,8.5,3.9,12.4c0.1,0.1,0.2,0.1,0.3,0.2
	c2.5,1.1,6.3,2.5,9.9,3.9c-3.8-0.9-8.1-1.8-11.6-2.5C81.2,61.9,79.7,56.9,77.9,52"/>
<path class="st1" d="M86,54.7c3.1,0.5,6.1-1.7,6.5-4.8c0.5-3.1-1.7-6.1-4.8-6.5c-3.1-0.5-6.1,1.7-6.5,4.8
	C80.7,51.3,82.9,54.2,86,54.7"/>
<path class="st1" d="M18.5,28.7c-0.6-0.5-1.4-0.6-2.1-0.3c-1,0.4-1.5,1.6-1,2.6c0.1,0.2,0.2,0.3,0.3,0.5c2.1,2.7,15.6,19.1,17,20.7
	c0.4,0.5,0.8,0.8,1.5,1.1c1.7,0.7,12.9,5.7,17.1,7.4c0.3,0.1,0.6,0.2,1,0.3c2.9,0.6,5.9-1.2,6.5-4.2c0.6-2.8-1.1-5.6-3.9-6.4
	c-2.6-0.7-11.7-2.7-17.6-3.9C33,42,24.8,34.4,18.5,28.7"/>
</svg>
