<?xml version="1.0" encoding="utf-8"?>
<!-- Generator: Adobe Illustrator 24.1.2, SVG Export Plug-In . SVG Version: 6.00 Build 0)  -->
<svg version="1.1" id="Layer_1" xmlns="http://www.w3.org/2000/svg" xmlns:xlink="http://www.w3.org/1999/xlink" x="0px" y="0px"
	 viewBox="0 0 120 120" style="enable-background:new 0 0 120 120;" xml:space="preserve">
<style type="text/css">
	.st0{fill:#8b2030;}
	.st1{fill:#FFFFFF;}
</style>
<ellipse transform="matrix(0.9239 -0.3827 0.3827 0.9239 -18.3938 27.5282)" class="st0" cx="60" cy="60" rx="60" ry="60"/>
<path class="st1" d="M102.6,85.8H5.8c0.6,1.2,1.2,2.4,1.9,3.6h94.9V85.8z"/>
<path class="st1" d="M53.8,67c0.2,0,0.4,0,0.6,0c0.4,0,0.7-0.1,1-0.1c2.9-0.6,13.9-3.6,17.8-4.7c-2.4-3.8-3.8-7.3-3.6-10.1
	c-4.4,1.7-12.9,5.4-16,7c-4.6-0.3-15.7-0.6-22.7-0.6c-0.9,0-1.5,0.4-2,1l-0.4,0c-0.2-3.5-2.9-6.2-7.2-6.6c-4.8-0.5-8.1,2.2-8.5,6.3
	c-0.4,4.1,2.4,7.4,7.2,7.8c4.3,0.4,7.4-1.7,8.3-5l0.5,0c0.3,0.6,0.9,1.1,1.6,1.2C31.6,63.4,51.4,66.8,53.8,67"/>
<path class="st1" d="M70.4,32.4c-4.5,0-8.1,3.6-8.1,8.1c0,4.5,3.6,8.1,8.1,8.1c4.5,0,8.1-3.6,8.1-8.1C78.5,36,74.9,32.4,70.4,32.4"
	/>
<path class="st1" d="M91.2,77.9c-0.1,0.3-0.2,0.6-0.3,1c-0.1,1.5,1,2.7,2.5,2.8c0.9,0.1,1.8-0.4,2.4-1.1c0.6-0.7,12.7-18.6,14.7-22
	c0.4-0.6,0.6-1.3,0.7-2c0.1-1.9-1-3.6-2.7-4.2c-3.5-1.5-18.9-7.2-20.1-7.6c-0.6-0.2-1.2-0.3-1.8-0.4c-3.5-0.2-6.5,2.5-6.8,6
	c-0.2,3.3,2.1,6.1,5.2,6.7c4.7,1,10.2,1.9,15.1,2.6C97.2,65.2,94,71.7,91.2,77.9"/>
<path class="st1" d="M15.1,46.6c1.5,0,2.7-1.2,2.7-2.7c0-1.5-1.2-2.7-2.7-2.7c-1.5,0-2.7,1.2-2.7,2.7C12.4,45.4,13.6,46.6,15.1,46.6
	"/>
</svg>
