<?xml version="1.0" encoding="utf-8"?>
<!-- Generator: Adobe Illustrator 24.1.2, SVG Export Plug-In . SVG Version: 6.00 Build 0)  -->
<svg version="1.1" id="Layer_1" xmlns="http://www.w3.org/2000/svg" xmlns:xlink="http://www.w3.org/1999/xlink" x="0px" y="0px"
	 viewBox="0 0 120 120" style="enable-background:new 0 0 120 120;" xml:space="preserve">
<style type="text/css">
	.st0{fill:#8b2030;}
	.st1{fill:#FFFFFF;}
</style>
<ellipse transform="matrix(0.9239 -0.3827 0.3827 0.9239 -18.3938 27.5282)" class="st0" cx="60" cy="60" rx="60" ry="60"/>
<path class="st1" d="M95.9,30.5c-3-0.1-5.5,2.2-5.6,5.2c-0.1,3,2.2,5.5,5.2,5.6c3,0.1,5.5-2.2,5.6-5.2
	C101.2,33.2,98.9,30.6,95.9,30.5"/>
<path class="st1" d="M77,34.9c-0.8,0.7-1.2,1.8-1,2.9c0.1,0.9,0.6,1.7,1.2,2.3l1.8,1.8l-6.8,7.3L81.7,60l8.1-3.3l3.6,3.4
	c0.8,0.8,2,1.1,3.2,0.8c1.7-0.4,2.7-2,2.5-3.7c0,0-0.6-6.4-0.9-8.4c-0.2-1.6-1-2.9-1.9-3.6c-0.1-0.1-0.4-0.3-0.5-0.4
	c0,0-9.8-7-11.4-8.1l5.4-6.4c0.7-0.3,1.1-0.4,1.8-0.7c0.6-0.3,1-0.5,1.4-0.9c1.3-1.2,0.9-2.3,0.2-3.2c-0.6-0.6-1.2-0.8-1.9-0.7
	c-0.9,0.1-1.7,0.8-3.9,3.7L85.9,30l-1.6-1.9L77,34.9z"/>
<path class="st1" d="M30.3,40.4c-1.1,0.9-1.8,2.4-1.5,4c0.2,0.9,0.6,1.7,1.3,2.3c0.4,0.4,3.1,2.4,3.1,2.4l-2.3,7.2h14.8l3.4-7.1
	l11.2,8.2c2.8,2.1,4.4,3.3,5.6,4.9c1.2,1.6,1.9,3.2,2.8,5.7l8.5,24.1l3-0.7l1.3,4c0,0.1,0.1,0.2,0.1,0.2c0.1,0.2,0.3,0.3,0.5,0.3
	c0.1,0,0.1,0,0.2,0l7.5,0c0,0,0.1,0,0.1,0c0.1,0,0.2-0.1,0.3-0.2c0-0.1,0-0.1,0-0.2v-0.5c0-0.9-0.4-1.5-1.3-1.7
	c-1-0.3-3.9-1.1-5.2-1.5l-4.4-25.2l0.5-4.7L69.7,50.7l-15.4-8.1l11.1-1.6l-0.3-3l3.1-0.4c0.7,0.3,1.1,0.4,1.8,0.7
	c0.7,0.2,1.1,0.2,1.6,0.2c1.8,0,2.3-1.2,2.3-2.3c0-0.8-0.3-1.4-1-1.8c-0.8-0.5-1.8-0.5-5.5,0.2l-24.7,0c-1.4-1.5-2.7-2.9-3.1-3.4
	c-0.8-0.8-1.6-0.7-2.3-0.3c-0.1,0-0.3,0.2-0.4,0.2c-0.1,0-0.1,0.1-0.2,0.1c-0.1,0.1-0.2,0.2-0.1,0.3c0,0.1,0,0.1,0.1,0.3
	c0.1,0.1,1.9,3.3,1.9,3.3c0,0-0.4,0.2-0.5,0.3C36.1,36.4,31.7,39.3,30.3,40.4"/>
<path class="st1" d="M15.8,92c0,0,0,0.1-0.1,0.1c-0.2,0.4,0,0.8,0.3,1c0,0,0.1,0.1,0.2,0.1l6.9,2.8c0,0,0.1,0,0.1,0
	c0.1,0,0.3,0,0.3-0.1c0.1-0.1,0.1-0.1,0.1-0.2c0.1-0.1,0.2-0.4,0.2-0.4c0.3-0.8,0.2-1.5-0.6-2.1c-0.5-0.4-1.9-1.5-3-2.4l17.9-22
	l8.1,8.1l-3,12.2l3.5,1.2c0,0-1.1,4.4-1.1,4.5c0,0.1,0,0.2,0,0.3c0,0.4,0.3,0.8,0.6,0.9c0.1,0,0.2,0,0.4,0l8.1,0c0.1,0,0.2,0,0.2,0
	c0.1,0,0.2-0.1,0.3-0.2c0-0.1,0.1-0.1,0.1-0.3l0-0.5c0-1-0.5-1.6-1.5-1.9c-0.7-0.2-3.8-1.1-3.8-1.1s5.6-14.2,5.9-15.2
	c0.2-0.6,0.2-1.2,0.1-1.8c-0.1-0.7-0.3-1.3-0.7-1.9c-0.3-0.6-10.2-14-10.2-14H30l-6.9,7.1h4L15.5,86.6l2.5,1.8L15.8,92z"/>
<path class="st1" d="M47.4,32.6c3-0.1,5.3-2.7,5.2-5.7c-0.1-3-2.7-5.3-5.7-5.2c-3,0.1-5.3,2.7-5.2,5.7
	C41.8,30.4,44.4,32.7,47.4,32.6"/>
</svg>
