<?xml version="1.0" encoding="utf-8"?>
<!-- Generator: Adobe Illustrator 24.1.2, SVG Export Plug-In . SVG Version: 6.00 Build 0)  -->
<svg version="1.1" id="Layer_1" xmlns="http://www.w3.org/2000/svg" xmlns:xlink="http://www.w3.org/1999/xlink" x="0px" y="0px"
	 viewBox="0 0 120 120" style="enable-background:new 0 0 120 120;" xml:space="preserve">
<style type="text/css">
	.st0{fill:#8b2030;}
	.st1{fill:#FFFFFF;}
</style>
<path class="st0" d="M120,60c0,33.1-26.9,60-60,60C26.9,120,0,93.1,0,60C0,26.9,26.9,0,60,0C93.1,0,120,26.9,120,60"/>
<path class="st1" d="M92.9,101c-0.1-0.4-1.5-4.1-1.5-4.1l2.8-1.3l-9.6-26.3l2.8-2.7l-6.7-4.1L57.2,78.7c-1,0.7-1.7,1.7-1.9,2.8
	l-4.9,17.4c0,0-6.1,1.4-6.2,1.4c-0.1,0-0.1,0-0.2,0c-0.5,0.2-0.7,0.7-0.5,1.2c0.1,0.3,0.3,0.4,0.6,0.5c0.1,0,0.2,0,0.3,0h7.6
	c0.1,0,0.2,0,0.3,0c0.2-0.1,0.4-0.2,0.5-0.4c0.2-0.2,1.9-4.4,1.9-4.4l3.2,1.1L63.5,86l14.1-7.2l11.4,20.8c0,0-3.8,0.9-3.9,0.9
	c-0.1,0-0.1,0-0.2,0.1c-0.4,0.2-0.6,0.7-0.4,1.1c0.1,0.2,0.3,0.4,0.5,0.5c0.1,0,0.2,0,0.3,0h6.7c0.2,0,0.4,0,0.5-0.1
	C92.8,101.9,93,101.4,92.9,101"/>
<path class="st1" d="M61.1,13.1c0,0-6.2,0.6-6.5,0.6c-0.3,0-0.5,0.1-0.7,0.5c-0.1,0.4-1.3,4-1.3,4l-2.9-0.7l-3.9,11.4l-8.5,6.9
	l-2.6-1.9l-3.3,5.9l11,9.4c0,0,13.7-2.2,14.7-2.4c0.5-0.1,1-0.3,1.5-0.5c0.4-0.2,0.7-0.4,1.1-0.8c0.7-0.7,13.9-12.6,13.9-12.6
	s5.6,1.9,5.7,2c0.1,0,0.2,0.1,0.3,0.1c0.5,0.1,0.9-0.2,1-0.7c0.1-0.4-0.1-0.7-0.4-0.9c-0.1,0-0.2-0.1-0.2-0.1s-6-3.7-6.2-3.8
	c-0.3-0.2-0.7-0.2-1,0c-0.2,0.1-3.8,2.6-3.8,2.6l-2.1-2.5l-12,8.2L48.6,38c0,0,3-3.1,3.6-3.8c0.3-0.4,0.5-0.7,0.7-1
	c0.2-0.4,0.3-0.8,0.4-1.2c0.2-1,2.9-15.6,2.9-15.6s4.1-1.3,5.2-1.7c0.2,0,0.2-0.1,0.3-0.1c0.3-0.2,0.5-0.6,0.3-1.1
	c-0.1-0.3-0.4-0.4-0.6-0.4C61.3,13.1,61.2,13.1,61.1,13.1"/>
<path class="st1" d="M77.9,60.8l-14.8-9.2c-0.8-0.5-1.8-0.8-2.9-0.8c-2,0.1-3.7,1.2-4.5,2.9l-5.1,10.4L42.1,71l-3.8-5.9
	c-0.4-0.6-0.9-1-1.5-1.3l-1.1-0.5l4.1-12.5l-9.9-8.5L19.4,61c-0.7,1.2-0.9,2.7-0.4,4.1c0.6,1.8,2.2,3.1,4,3.4l10.6,1.8
	c0,0,8,9.3,8.3,9.6c0.3,0.3,0.7,0.5,1.2,0.5c0.8-0.1,1.3-0.7,1.3-1.5c0-0.2-0.1-0.4-0.2-0.6c-0.1-0.2-2-3.4-2-3.4l3.2-1.8l1.2,1.8
	c0,0,8.6-5.2,8.9-5.3c0.3-0.2,0.6-0.4,0.8-0.7c0.2-0.2,3.4-3.9,3.4-3.9l8.1,3L77.9,60.8z"/>
<path class="st1" d="M40.6,56.5c0,3,2.4,5.4,5.4,5.4c3,0,5.4-2.4,5.4-5.4c0-3-2.4-5.4-5.4-5.4C43,51,40.6,53.5,40.6,56.5"/>
<path class="st1" d="M28.8,71.7c-3,0-5.4,2.4-5.4,5.4c0,3,2.4,5.4,5.4,5.4c3,0,5.4-2.4,5.4-5.4C34.2,74.1,31.8,71.7,28.8,71.7"/>
</svg>
