<?xml version="1.0" encoding="utf-8"?>
<!-- Generator: Adobe Illustrator 24.1.2, SVG Export Plug-In . SVG Version: 6.00 Build 0)  -->
<svg version="1.1" id="Layer_1" xmlns="http://www.w3.org/2000/svg" xmlns:xlink="http://www.w3.org/1999/xlink" x="0px" y="0px"
	 viewBox="0 0 120 120" style="enable-background:new 0 0 120 120;" xml:space="preserve">
<style type="text/css">
	.st0{fill:#8b2030;}
	.st1{fill:#FFFFFF;}
</style>
<ellipse transform="matrix(0.9239 -0.3827 0.3827 0.9239 -18.3938 27.5282)" class="st0" cx="60" cy="60" rx="60" ry="60"/>
<path class="st1" d="M92.9,29.6c-0.3-0.6-1-0.8-1.6-0.6c-0.6,0.1-13.5,4-16,4.8c-0.2,0.1-0.3,0.1-0.4,0.1c-0.1,0-0.2,0.1-0.4,0.2
	c-1.7,0.7-7.9,3.7-11.5,5.7c2.4,0.8,4,2.5,6.1,5.9c3-2.4,7.1-5.8,8.3-6.9c3.1-1.4,14.4-6.8,15.1-7.2C93.1,31.2,93.3,30.3,92.9,29.6"
	/>
<path class="st1" d="M71,13.4l0.7-0.1l6.5,1l-1-6.3l-5.9,2.9l-0.7,0.1c-0.7,0.1-1.1,0.7-1,1.4C69.7,13,70.3,13.5,71,13.4"/>
<path class="st1" d="M42.1,63.4c0.6,0,1.2-0.2,1.7-0.5c0.8-0.4,7.4-5.5,11.2-8.3c1-0.7,1.7-1.3,2.5-2.1c0.8-0.8,1.5-2.1,1.5-3.4
	c0-2.7-2.2-4.8-4.9-4.8c-0.9,0-1.8,0.3-2.5,0.7c-0.2,0.1-0.6,0.5-1,0.9c-1.4,1.4-4.5,5.1-7,8.1c-1.3-5-3-11.3-3.3-12.4
	c0,0-0.1-0.2-0.1-0.4l1.2-4l-0.1-1.3l3.6-12.2c1.5,0.2,4.2,0.1,5.9-2.8c1.8-2.9,1.3-5.8,0.9-7.3c-0.6-2-1.8-3.3-3.6-3.9
	c-1.8-0.5-3.6-0.1-5.2,1.3c-1.2,1-3.1,3.2-3.2,6.6c-0.1,3.4,2,4.9,3.4,5.5l-3.6,12.2l-0.7,1l-1.5,5.2c-0.1,0.2-0.1,0.4-0.1,0.4
	c-0.1,2,1.5,16.9,2.1,19.3C39.6,62.5,40.7,63.4,42.1,63.4 M41.5,17.6c0.1-2.7,1.7-4.4,2.6-5.2c1.1-0.9,2.2-1.2,3.4-0.9
	c1.2,0.3,2,1.2,2.4,2.6c0.3,1.2,0.7,3.5-0.7,5.8c-1.4,2.3-3.5,2.1-4.7,1.7C43.3,21.3,41.4,20.3,41.5,17.6"/>
<path class="st1" d="M50,34.9c0,3.2,2.6,5.9,5.9,5.9c3.2,0,5.9-2.6,5.9-5.9c0-3.2-2.6-5.9-5.9-5.9C52.6,29,50,31.6,50,34.9"/>
<path class="st1" d="M67.4,64.9c-0.4-0.2-0.9-0.6-1.7-0.8c-0.6-0.2-1.2-0.3-1.8-0.3c-2.9,0-5.3,2.1-5.8,5
	c-0.5,2.8-0.9,15.8-0.9,21.3c-5.3,4.1-17.4,14.1-19.4,16c-0.4,0.4-0.6,0.9-0.7,1.5c0,1.2,0.9,2.1,2,2.1c0.3,0,0.6-0.1,0.9-0.2
	c2-1,22.6-13.4,23.7-14.4c0.6-0.5,1-1.1,1.2-1.8c0.1-0.2,0.2-0.5,0.3-0.9c6.4-3.1,16.2-8,17-8.7c0.8-0.6,1.3-1.4,1.5-2.4
	c0.2-1.2-0.2-2.3-1-3.1C80.6,75.8,70.6,67,67.4,64.9 M67.1,84.9c0.5-2.4,1-4.9,1.5-7.2c1.6,1,3.2,2.1,4.7,3
	C71.4,82,69.2,83.5,67.1,84.9"/>
</svg>
