<?xml version="1.0" encoding="utf-8"?>
<!-- Generator: Adobe Illustrator 24.1.2, SVG Export Plug-In . SVG Version: 6.00 Build 0)  -->
<svg version="1.1" id="Layer_1" xmlns="http://www.w3.org/2000/svg" xmlns:xlink="http://www.w3.org/1999/xlink" x="0px" y="0px"
	 viewBox="0 0 120 120" style="enable-background:new 0 0 120 120;" xml:space="preserve">
<style type="text/css">
	.st0{fill:#8b2030;}
	.st1{fill:#FFFFFF;}
</style>
<path class="st0" d="M120,60c0,33.1-26.9,60-60,60S0,93.1,0,60C0,26.9,26.9,0,60,0S120,26.9,120,60"/>
<path class="st1" d="M101,22.9c-0.4,0-0.7,0.1-1.2,0.4C91,29.4,70.5,44.6,60.9,52.2l-7.9,13c-1.3,10.1-3.6,33.9-4.3,45.2
	c0,0.6,0,1.2,0.2,1.5c0.6,1.1,2,1.5,3.1,0.9c0.6-0.3,0.9-0.7,1.2-1.5c0.6-2.1,6.8-28.4,6.8-28.4C62.5,72.8,64.7,68,67,64.4
	c2.8-4.4,7.5-9.1,13.1-14.8c0,0,21.4-21.4,22.7-22.9c0.4-0.5,0.6-1,0.6-1.6C103.3,23.8,102.2,22.9,101,22.9"/>
<path class="st1" d="M31.4,51.5c-0.1-0.1-0.1-0.2-0.2-0.3c-1,1.6-3.3,6.2-4.7,9.1c-2-4.1-5-9.6-5.6-10.5c-0.1-0.1-0.1-0.2-0.2-0.3
	c-0.3-0.4-0.8-0.5-1.3-0.4c-0.6,0.1-1,0.6-1.1,1.2c0,0.2,0,0.4,0,0.6c0.3,1.4,4.9,14.5,5.9,16.8c0.5,1.2,1.7,1.6,3,1.3
	c0.5-0.1,0.8-0.3,1.3-0.7c0.1-0.1,0.3-0.3,0.5-0.6c1.6-1.8,6.6-8.3,8.7-11c-0.3-0.2-0.6-0.4-0.9-0.6C34.7,54.7,32.5,53.2,31.4,51.5"
	/>
<path class="st1" d="M29.2,48.2c0.3,0,5.9-0.2,5.9-0.2l0.2-2.6c0,0-0.5,0-1.7-0.2c-1.1-0.1-1.8-0.6-2.3-1.2c-0.2-0.3-0.5-0.6-0.6-1
	c-0.2-0.4-0.4-0.8-0.6-1.3c-0.3-0.6-0.2-1-0.1-1.3c0.1-0.3,0.3-0.6,1.2-1.1c1.5-0.8,2.4-1.2,3.1-1.6c0.4-0.2,0.4-0.4,0.5-0.7
	c0.1-0.6-0.4-1.3-1.1-2.1c-0.8-0.9-1.3-1.3-2.5-1.8c-1.3-0.5-2.2-0.2-4.7,1.1c-2.7,1.4-3.3,2-3.7,3.6c-0.4,1.8-0.2,3.4,1,5.6
	C25.9,47.8,27.9,48.3,29.2,48.2"/>
<path class="st1" d="M58.5,50.5c0,0-2.9-1.9-3.1-2c-0.1-0.1-0.9-0.6-1.2-0.7c-2.1-1.3-5.3-2.5-5.3-2.5l-7.8,12.6
	c0,0,2.8,2.4,4.7,3.5c0.8,0.5,1,0.6,1.3,0.8c0.1,0.1,3.1,1.8,3.1,1.8L58.5,50.5z"/>
<path class="st1" d="M43.2,44.3c0.9,0.3,1.7,0.3,2.6,0.2c0.4-0.1,0.8-0.2,1.1-0.4c0.3-0.2,1.4-0.8,2.8-1.8c3.5-2.3,9-5.9,10.4-7
	c3.2-1.4,14.5-7.5,15.7-8.3c0.2-0.2,0.4-0.3,0.5-0.5c0.3-0.5,0.3-1.2,0-1.7c-0.3-0.5-0.8-0.7-1.4-0.7c-0.1,0-0.2,0-0.4,0.1
	c-2,0.6-27.7,9.6-31,11.3c-1.6,0.8-2,1.2-2.3,1.6c-0.3,0.4-0.6,0.9-0.8,1.4C39.6,40.9,40.8,43.5,43.2,44.3"/>
</svg>
