<?xml version="1.0" encoding="utf-8"?>
<!-- Generator: Adobe Illustrator 24.1.2, SVG Export Plug-In . SVG Version: 6.00 Build 0)  -->
<svg version="1.1" id="Layer_1" xmlns="http://www.w3.org/2000/svg" xmlns:xlink="http://www.w3.org/1999/xlink" x="0px" y="0px"
	 viewBox="0 0 120 120" style="enable-background:new 0 0 120 120;" xml:space="preserve">
<style type="text/css">
	.st0{fill:#8b2030;}
	.st1{fill:#FFFFFF;}
</style>
<circle class="st0" cx="60" cy="60" r="60"/>
<path class="st1" d="M47.3,55.7c4.9,0,8.8-3.9,8.8-8.8c0-4.9-3.9-8.8-8.8-8.8c-4.9,0-8.8,3.9-8.8,8.8C38.5,51.8,42.5,55.7,47.3,55.7
	"/>
<path class="st1" d="M107.6,70.2c1.2-0.2,2.1-1.2,2.1-2.4c0-1.3-1.1-2.4-2.4-2.4h-1c0.1-1.5,0.2-3,0.2-4.5h6.4
	c0.5,0,0.9-0.4,0.9-0.9c0-0.5-0.4-0.9-0.9-0.9h-6.4C106.1,36.3,94.6,14.6,78.7,7c-0.5-0.2-1,0-1.2,0.4L77,8.7c-0.2,0.4,0,1,0.4,1.2
	c14.8,7.2,25.5,27.6,25.9,49.2H28.7h-5.3c-9.7,0-11.2,0.3-13,1.1C9,60.8,8,62.2,8,63.8c0,1.3,0.6,2.5,1.7,3.2c3,1.9,17,7.7,19.4,8.2
	c1.2,0.2,2.8-2.4,3.4-5.7c0.3-1.7,0.4-3.2,0.2-4.4c4.7-0.7,7.5-1.1,8.2-1.3c1.2-0.2,2-1.2,2-2.4c0,0,0-0.2,0-0.5l60.4,0
	c0,1.5-0.1,3-0.2,4.5H81.1H59.5c0.7,3,1.1,7.6,1,12c7.9-1,17.2-3,21.3-3.9c3.8-0.3,14.1-1.6,20.6-2.5c-2.9,17.6-12.5,33-24.9,39
	c-0.4,0.2-0.6,0.7-0.4,1.2l0.6,1.3c0.2,0.5,0.7,0.7,1.2,0.4c13.6-6.6,24-23.4,26.9-42.4C106.6,70.4,107.3,70.3,107.6,70.2"/>
</svg>
