<?xml version="1.0" encoding="utf-8"?>
<!-- Generator: Adobe Illustrator 24.1.2, SVG Export Plug-In . SVG Version: 6.00 Build 0)  -->
<svg version="1.1" id="Layer_1" xmlns="http://www.w3.org/2000/svg" xmlns:xlink="http://www.w3.org/1999/xlink" x="0px" y="0px"
	 viewBox="0 0 120 120" style="enable-background:new 0 0 120 120;" xml:space="preserve">
<style type="text/css">
	.st0{fill:#8b2030;}
	.st1{fill:#FFFFFF;}
</style>
<path class="st0" d="M120,60c0,33.1-26.9,60-60,60S0,93.1,0,60C0,26.9,26.9,0,60,0S120,26.9,120,60"/>
<path class="st1" d="M38.7,54.4c4.8-0.1,8.6-4,8.5-8.8c-0.1-4.8-4-8.6-8.8-8.5c-4.8,0.1-8.6,4-8.5,8.8C30,50.7,33.9,54.5,38.7,54.4"
	/>
<path class="st1" d="M25.8,57.4c-3.1-2.3-7.4-1.7-9.8,1.3c-2.3,3.1-1.8,7.5,1.4,9.8c4.7,3.5,17.3,11.7,19.2,12.6
	c0.9,0.5,1.8,0.7,2.8,0.5c1.3-0.2,2.4-1,3-1.8c1.2-1.7,14.9-20.5,14.9-20.5l4.8-3.3l7.5-0.7l-9.2,10c-1.2-0.2-2.5-0.4-3.7-0.6
	l-6.1,8.4L61.2,74c0.4,0,0.7,0.1,0.9,0.1c1.6,0,2.9-0.9,3.7-2.3l10.8-18.9l32.5-3.4c0.3,0,0.6-0.3,0.5-0.7l-0.2-2.1
	c0-0.3-0.3-0.6-0.7-0.5l-44.1,4.6c-1.5,0.2-2.9,0.5-4.3,1.1l-6.1,2.8c-0.8,0.4-1.7,0.6-2.6,0.7l-25,2.7C26.6,58,26.1,57.6,25.8,57.4
	 M38.8,70.8c-1.3-1.4-2.9-3.1-4.6-4.8l12.9-3.4C44.3,65.3,41.2,68.3,38.8,70.8"/>
</svg>
