<?xml version="1.0" encoding="utf-8"?>
<!-- Generator: Adobe Illustrator 24.1.2, SVG Export Plug-In . SVG Version: 6.00 Build 0)  -->
<svg version="1.1" id="Layer_1" xmlns="http://www.w3.org/2000/svg" xmlns:xlink="http://www.w3.org/1999/xlink" x="0px" y="0px"
	 viewBox="0 0 120 120" style="enable-background:new 0 0 120 120;" xml:space="preserve">
<style type="text/css">
	.st0{fill:#8b2030;}
	.st1{fill:#FFFFFF;}
</style>
<path class="st0" d="M120,60c0,33.1-26.9,60-60,60S0,93.1,0,60S26.9,0,60,0S120,26.9,120,60"/>
<path class="st1" d="M67.8,30.2c-1.1,0-2.3-0.2-3.3-0.4c-0.2,2-0.3,3.6-0.4,4.2c-0.3,1.7-2.4,13.4-2.5,14.5c-0.2,2.1,0.9,4.1,2.9,5
	c2.5,1.1,5.3,0,6.4-2.5c0.3-0.7,0.4-1.4,0.4-2.1c0-1.5-0.9-13.2-1-14.6c0-0.5,0-2.1,0-4.2C69.5,30.1,68.7,30.2,67.8,30.2"/>
<path class="st1" d="M73.5,44.2c0,3.1,2.5,5.6,5.6,5.6c3.1,0,5.6-2.5,5.6-5.6c0-3.1-2.5-5.6-5.6-5.6C75.9,38.6,73.5,41.1,73.5,44.2"
	/>
<path class="st1" d="M79.8,106.4c0,1.2,1,2.2,2.1,2.2c1.1,0,2-0.8,2.1-1.8l3.8-23.9c0-0.2,0-0.3,0-0.5c0-1.3-0.7-2.5-1.8-3.1
	c-5-2.8-17.7-10.3-19-10.9c-0.8-0.4-1.7-0.6-2.6-0.6c-1.9,0-3.4,0.9-4.8,2.5c-1.1,1.4-8.5,14.3-10.9,18.5
	c-3.9,3.5-17.2,15.9-17.7,16.4c-0.8,0.9-0.8,2.3,0,3.1c0.8,0.8,2,0.9,2.9,0.2l20-14.4c0.1-0.1,0.2-0.2,0.4-0.3
	c0.1-0.1,0.2-0.2,0.2-0.2c2.9-3.1,9-9.9,12.3-13.8c4,1.5,9.9,3.7,13.7,5.1C80.3,91.1,79.8,104.1,79.8,106.4"/>
<path class="st1" d="M67.8,28.4c6.6,0.1,12-5.3,12-11.9c0.1-6.6-5.3-12-11.9-12c-6.6-0.1-12,5.3-12,11.9
	C55.9,22.9,61.3,28.3,67.8,28.4 M68,14.6c1,0,1.9,0.8,1.8,1.9c0,1-0.8,1.9-1.9,1.8c-1,0-1.9-0.8-1.8-1.9
	C66.1,15.4,66.9,14.6,68,14.6"/>
</svg>
