<?xml version="1.0" encoding="utf-8"?>
<!-- Generator: Adobe Illustrator 24.1.2, SVG Export Plug-In . SVG Version: 6.00 Build 0)  -->
<svg version="1.1" id="Layer_1" xmlns="http://www.w3.org/2000/svg" xmlns:xlink="http://www.w3.org/1999/xlink" x="0px" y="0px"
	 viewBox="0 0 120 120" style="enable-background:new 0 0 120 120;" xml:space="preserve">
<style type="text/css">
	.st0{fill:#8b2030;}
	.st1{fill:#FFFFFF;}
</style>
<path class="st0" d="M120,60c0,33.1-26.9,60-60,60C26.9,120,0,93.1,0,60C0,26.9,26.9,0,60,0C93.1,0,120,26.9,120,60"/>
<path class="st1" d="M66.4,95.6c0-1.2-2.2-13.7-2.8-16.7l0.7-8.4c-1.3,3-3,6.6-4.2,9.3c0,1.4-0.1,3.6-0.1,6l3.2,9.8h-5.1
	c0-1.2,0.2-13.1,0.3-16.2c1.5-3.2,5.8-12.6,6.4-14.5c0.1-0.3,0.1-0.4,0.1-0.5c0.5-2.8-1.3-5.4-4-6c-2.7-0.5-5.3,1.2-5.9,3.8
	c-0.4,1.6-2.3,14.6-2.1,16.5c0.2,2.4,1.9,15.7,2.2,17H11.7c0.9,1.2,1.9,2.4,2.9,3.6h90.9c1-1.2,2-2.4,2.9-3.6H66.4z"/>
<path class="st1" d="M75.5,76.1c2.7-1.9,3.4-5.7,1.5-8.4c-1.9-2.7-5.7-3.4-8.4-1.5c-2.7,1.9-3.4,5.7-1.5,8.4
	C69,77.3,72.8,78,75.5,76.1"/>
<path class="st1" d="M110.3,36.2c-0.3-0.4-0.8-0.6-1.3-0.6c-2.1-0.1-21.9,0.5-25.1,0.8c-7.6-0.3-17.7-0.2-20.2-0.2
	c-2.4-0.7-13.1-3.9-19.6-5.4c-8.8-3.3-24.7-7.9-25-8c-0.6-0.2-1.3-0.1-1.8,0.4c-0.8,0.7-0.8,1.9-0.1,2.7c0.2,0.2,0.3,0.3,0.5,0.4
	c0.5,0.3,43,19.9,43,19.9c0.9,0.4,1.9,0.6,2.9,0.4c0.7,0,44.8-7.2,45.8-7.5c0.3-0.1,0.6-0.2,0.8-0.4C111,38.1,111,37,110.3,36.2"/>
</svg>
