<?xml version="1.0" encoding="utf-8"?>
<!-- Generator: Adobe Illustrator 24.1.2, SVG Export Plug-In . SVG Version: 6.00 Build 0)  -->
<svg version="1.1" id="Layer_1" xmlns="http://www.w3.org/2000/svg" xmlns:xlink="http://www.w3.org/1999/xlink" x="0px" y="0px"
	 viewBox="0 0 120 120" style="enable-background:new 0 0 120 120;" xml:space="preserve">
<style type="text/css">
	.st0{fill:#8b2030;}
	.st1{fill:#FFFFFF;}
</style>
<ellipse transform="matrix(0.9239 -0.3827 0.3827 0.9239 -18.3938 27.5282)" class="st0" cx="60" cy="60" rx="60" ry="60"/>
<path class="st1" d="M90.7,61.4c0,0.2,0,0.5,0,0.7c0,2.9-1.2,5.6-3,7.6c1,0.3,2.1,0.4,3.2,0.4c2.7,0,5.2-0.9,7.2-2.4
	c2,1.5,4.5,2.4,7.2,2.4c3.2,0,6.1-1.2,8.3-3.3C106.2,64.4,98.6,62.5,90.7,61.4"/>
<path class="st1" d="M28.7,56.1c1.3-0.3,15.1-5,21.7-7.6c1.1,2.1,2.4,4.8,3.8,7.3c-16.6,1.3-32.4,5.5-46.8,12.1
	c2,1.4,4.3,2.2,6.9,2.2c2.7,0,5.2-0.9,7.2-2.4c2,1.5,4.5,2.4,7.2,2.4s5.2-0.9,7.2-2.4c2,1.5,4.5,2.4,7.2,2.4s5.2-0.9,7.2-2.4
	c2,1.5,4.5,2.4,7.2,2.4c4.9,0,9-3,11.1-7.2c0.1-0.3,0.3-0.6,0.4-0.9c0.5-1.6,0.4-3.2-0.4-4.5c-2.2-4-11.8-16.2-14.2-17.4
	c-0.2-0.1-0.5-0.2-0.7-0.3c-0.8-0.3-1.6-0.2-2.4,0C49.7,40.3,27.8,51,27,51.6c-0.5,0.3-0.9,0.8-1,1.4c-0.4,1.3,0.4,2.7,1.7,3.1
	C28,56.1,28.4,56.2,28.7,56.1"/>
<path class="st1" d="M79.7,54c-4.4,0-8,3.6-8,8c0,4.4,3.6,8,8,8c4.4,0,8-3.6,8-8C87.7,57.6,84.1,54,79.7,54"/>
</svg>
