<?xml version="1.0" encoding="utf-8"?>
<!-- Generator: Adobe Illustrator 24.1.2, SVG Export Plug-In . SVG Version: 6.00 Build 0)  -->
<svg version="1.1" id="Layer_1" xmlns="http://www.w3.org/2000/svg" xmlns:xlink="http://www.w3.org/1999/xlink" x="0px" y="0px"
	 viewBox="0 0 120 120" style="enable-background:new 0 0 120 120;" xml:space="preserve">
<style type="text/css">
	.st0{fill:#8b2030;}
	.st1{fill:#FFFFFF;}
</style>
<path class="st0" d="M120,60c0,33.1-26.9,60-60,60C26.9,120,0,93.1,0,60C0,26.9,26.9,0,60,0C93.1,0,120,26.9,120,60"/>
<path class="st1" d="M61,28.5c-2.1-2.8-5.2-6.9-5.6-7.5c-0.1-0.2-0.3-0.4-0.5-0.6C54.3,19.7,44.5,9.9,43.9,9.4
	c-0.2-0.2-0.4-0.3-0.7-0.4c-1-0.4-2.1,0.1-2.5,1.1c-0.2,0.6-0.2,1.1,0.1,1.6c1,1.6,7.3,9.7,9.6,12.4c0.6,1.2,1.5,3.1,2.7,5.6
	C55.2,28.4,57.4,28,61,28.5"/>
<path class="st1" d="M47.2,27.4c-3.6-0.4-6.9,2.1-7.4,5.8c-0.4,3.6,2.1,6.9,5.8,7.4c3.6,0.4,6.9-2.1,7.4-5.8
	C53.5,31.2,50.9,27.9,47.2,27.4"/>
<path class="st1" d="M85.9,86.5c5-3.4,6.5-8.6-0.2-9.5c-1.5-0.2-3.9,0.3-6.3,1.9c-0.1,0.1-0.2,0.1-0.2,0.1
	c-3.6-4.4-8.6-10.7-10.6-12.9c1.7-1.9,3.2-3.8,4.4-5.2c1-1.1,1.6-2.6,1.6-4.2c0-3.4-2.8-6.2-6.2-6.1c-2.2,0-4.1,1.2-5.1,2.8
	C62.3,54.7,52.9,72,52.7,72.5c-0.2,0.4-0.4,0.9-0.5,1.5c-0.2,1.2-0.6,3.7-1,6.9c-16.6-6.3-33.2-10.2-50.6-12
	c0.2,1.2,0.4,2.5,0.7,3.7c18.6,2,34.9,6.3,49.4,11.9c-0.6,4.5-1.3,9.2-1.7,12.5l-3.2,1.9c-1.8,1.1-4.1,1.3-5.2,2.3
	c-2.2,2,0.5,5.7,10.3,5.1c2.3-0.1,4.7-0.8,7.2-2.3l15.1-9.4c8.3,4.3,16,8.7,23.2,13.1c1-0.8,2-1.6,3-2.4
	c-6.8-4.1-14.3-8.6-22.6-12.9C76.8,92.3,84.6,87.3,85.9,86.5 M54.6,93.5c0.6-2.1,1.3-4.5,1.9-6.8c1.9,0.8,3.7,1.6,5.5,2.4L54.6,93.5
	z M72.1,83.1l-6.4,3.8c-2.7-1.2-5.5-2.5-8.3-3.6c0.8-2.8,1.4-5.3,1.8-6.9c1.1-1.1,2.8-3,4.8-5.3c2,2.1,6.9,6.7,10.7,10.4
	C73.9,82.1,73,82.6,72.1,83.1"/>
<path class="st1" d="M93.8,42.1C93.5,42,80,35.7,79,35.2c-0.2-0.1-0.6-0.2-0.9-0.3c-1-0.2-13.2-2.8-14.5-3c-0.3-0.1-0.7-0.1-1-0.1
	c-2.8,0.1-5,2.4-4.9,5.1c0.1,2.7,2.3,4.9,5,4.9c1.4,0,11.3-0.5,14.4-0.8c3.1,1.1,14,4.7,15.2,4.9c0.3,0.1,0.4,0.1,0.7,0.1
	c1.1,0,2-1,2-2.1C94.9,43.1,94.5,42.5,93.8,42.1"/>
<path class="st1" d="M60.4,104.8c-1.3,0.1-2.3,1.4-2.2,2.9c0,1.5,1,2.5,2.3,2.4c1.3-0.1,2.3-1.4,2.3-2.9
	C62.7,105.7,61.6,104.7,60.4,104.8"/>
<path class="st1" d="M85.5,89.3c-1.2,0.1-2.2,1.4-2.1,2.8c0,1.4,1,2.4,2.2,2.3c1.2-0.1,2.2-1.4,2.1-2.8
	C87.6,90.2,86.7,89.1,85.5,89.3"/>
</svg>
