<?xml version="1.0" encoding="utf-8"?>
<!-- Generator: Adobe Illustrator 24.1.2, SVG Export Plug-In . SVG Version: 6.00 Build 0)  -->
<svg version="1.1" id="Layer_1" xmlns="http://www.w3.org/2000/svg" xmlns:xlink="http://www.w3.org/1999/xlink" x="0px" y="0px"
	 viewBox="0 0 120 120" style="enable-background:new 0 0 120 120;" xml:space="preserve">
<style type="text/css">
	.st0{fill:#8b2030;}
	.st1{fill:#FFFFFF;}
</style>
<circle class="st0" cx="60" cy="60" r="60"/>
<path class="st1" d="M60.3,69.6c1.1,1,2.6,1.6,4.2,1.6c3.4,0,6.2-2.1,6.2-6.5l13.8-0.1l-0.1-1.8l-4.7-1.4c0-0.3,0-0.5,0-0.8
	c-0.5-6.6-6-11.8-12.7-11.8c-7,0-12.8,5.7-12.8,12.8c0,1.1,0.1,2.2,0.4,3.2L60.3,69.6z"/>
<path class="st1" d="M82,94.2c3.8,0,7-2.8,7.5-6.7c0.5-4.1-2.5-7.8-6.6-8.3c-0.4,0-0.7-0.1-1.1,0c-2.2,0.1-13.8,1.4-20.3,2.7
	c-6.1-5.4-20.5-17-24.2-19.7l38.9-37.7c1.9-1.9,2-5,0.1-7c-2-1.8-5.1-1.6-7,0.4L33.6,58.6c-1.5-0.6-3.3,0.1-4,1.6
	c-0.2,0.3-0.3,0.7-0.3,1.1L26,85.5c-0.4,2.8,1.8,5.3,5.1,5.3c0,0,19.3,0,19.3,0l-11-12.3c-1,0.2-2,0.4-2.9,0.6
	c0-2.6-0.1-5.3-0.2-8.1l19,21.2c1,1.1,3.2,1.9,5.2,1.9C62.3,94.2,82,94.2,82,94.2"/>
</svg>
