<?xml version="1.0" encoding="utf-8"?>
<!-- Generator: Adobe Illustrator 24.1.2, SVG Export Plug-In . SVG Version: 6.00 Build 0)  -->
<svg version="1.1" id="Layer_1" xmlns="http://www.w3.org/2000/svg" xmlns:xlink="http://www.w3.org/1999/xlink" x="0px" y="0px"
	 viewBox="0 0 120 120" style="enable-background:new 0 0 120 120;" xml:space="preserve">
<style type="text/css">
	.st0{fill:#8b2030;}
	.st1{fill:#FFFFFF;}
</style>
<path class="st0" d="M120,60c0,33.1-26.9,60-60,60C26.9,120,0,93.1,0,60C0,26.9,26.9,0,60,0C93.1,0,120,26.9,120,60"/>
<path class="st1" d="M90.5,48.8c-4.1,0.1-12.8,0.6-15.7,0.8c-4.5-4.3-10.4-9.6-11.6-10.5c-0.2-0.1-0.3-0.2-0.3-0.2
	c-0.7-0.5-1.7-0.7-2.5-0.7c-0.9,0-2.4,0.2-3.6,1.6c-1.2,1.3-1.3,3-1.2,3.8c0.2,1.3,0.8,2.2,1.3,2.7c0.3,0.3,0.8,0.6,1,0.8
	c2.3,1.5,12.7,7.3,14.1,8c1,0.5,1.9,0.5,2.9,0.4c2.6-0.3,16-3,17.9-3.6c0.5-0.2,0.8-0.4,1.1-0.8c0.2-0.4,0.2-0.9,0-1.5
	c-0.5-1.4-3.2-8.4-3.5-9c-2.6-6.8,2.8-10.6-0.4-19c-2.8-7.5-8-8.3-11.1-7.1c-3.1,1.2-6.4,5.3-3.5,12.7c2,5.3,5.3,6.9,8.2,9.1
	c-3,1.7-6.8,3.9-8.6,5c-1.9-0.5-6.1-1.7-9.3-2.5c2.2,1.9,5.9,5.3,8.5,7.7c0.6,0,1,0,1.3-0.1c0.5-0.1,0.8-0.2,1.3-0.4
	c1-0.6,6-4.5,9.3-7.2c0.6,0.8,1.2,1.7,1.6,2.9L90.5,48.8z M77.2,26c-2-5.2,0-8.8,2.4-9.7c2.4-0.9,6.3,0.4,8.3,5.6
	c1.6,4.2,1.4,7,0.5,9.3c-0.6,1.5-1.4,2.2-2.2,2.4c-0.7,0.3-1.8,0.4-3.2-0.4C80.8,32.1,78.8,30.2,77.2,26"/>
<path class="st1" d="M64,35.5c3.3,0,6-2.7,6-6s-2.7-6-6-6c-3.3,0-6,2.7-6,6S60.7,35.5,64,35.5"/>
<path class="st1" d="M13.8,66.7c-1.8,0-3.2,1.4-3.2,3.2s1.4,3.2,3.2,3.2c1.8,0,3.2-1.4,3.2-3.2S15.6,66.7,13.8,66.7"/>
<path class="st1" d="M88.9,103.2c-0.7-0.8-10.4-17.7-13.1-22.8c-3-1.3-9.1-4.2-13.8-6.5c-1.6,5.2-3.1,9.7-4,12.1
	c-0.2,0.6-0.6,1.6-1.3,2.4c-0.7,0.8-1.7,1.5-2.1,1.9c-0.7,0.6-17.1,12.8-18.7,13.7c-0.3,0.2-0.6,0.3-0.9,0.3c-1.2,0.1-2.2-0.8-2.3-2
	c0-0.6,0.1-1.1,0.6-1.6c0.7-0.8,13.3-13,17.2-16.6c0.5-5.2,2.2-16.2,2.8-18.9c0.3-1.4,0.6-2.1,1.1-2.8c1.5-2.3,4.5-3.2,7.2-2
	c0.2,0.1,0.4,0.2,0.6,0.3c3.6,1.9,15.2,10.1,18.7,13.1c0.4,0.3,0.9,0.8,1.1,1.1c0.3,0.4,0.6,0.8,0.8,1.3c0.4,0.9,9.8,23.1,10.3,25
	c0.1,0.4,0.1,0.8,0.1,1.2c-0.2,1.3-1.5,2.1-2.7,1.9C89.8,104.1,89.3,103.8,88.9,103.2"/>
</svg>
