<?xml version="1.0" encoding="utf-8"?>
<!-- Generator: Adobe Illustrator 24.1.2, SVG Export Plug-In . SVG Version: 6.00 Build 0)  -->
<svg version="1.1" id="Layer_1" xmlns="http://www.w3.org/2000/svg" xmlns:xlink="http://www.w3.org/1999/xlink" x="0px" y="0px"
	 viewBox="0 0 120 120" style="enable-background:new 0 0 120 120;" xml:space="preserve">
<style type="text/css">
	.st0{fill:#8b2030;}
	.st1{fill:#FFFFFF;}
</style>
<ellipse transform="matrix(0.9239 -0.3827 0.3827 0.9239 -18.3938 27.5282)" class="st0" cx="60" cy="60" rx="60" ry="60"/>
<path class="st1" d="M90,53.3c-6.5-0.6-28.2-2-34.8-2.3c0.2,3.1,0.2,6-0.9,10.6c6.8-0.5,14.4-1,17.9-1.3c2.2-0.1,14.8-0.6,20.7-1.1
	c0.5,2.5,1.9,4.5,5.4,5.2c4.7,0.9,7.9-0.7,8.6-3.7c0.6-2.2,0.6-4.1-0.3-5.6c-0.9-1.4-2.5-2.3-4.8-2.7C98.7,51.8,93.8,52.8,90,53.3"
	/>
<path class="st1" d="M47.6,55.8c-1.5-1.3-3.6-2.7-5.5-2.4c-1.7,0.2-2.7,1.3-3.6,2.2c-2.3,2.5-2.4,6.5-2.4,6.9
	c-2.1,1.9-4.7,4.6-7.2,6.9c2.2-5.7,4.2-12.5,4.4-14.1c0.1-0.4,0.1-0.9,0-1.3c-0.3-3.8-3.3-6.5-7-6.2c-1,0.1-1.8,0.3-2.6,0.7
	c-1.6,0.8-2.8,2.4-3.3,4.1c-0.5,1.7-0.4,5.1-0.4,8.4c0.1,6.9,0.4,16.2,0.8,18.6c0.4,2.4,2.4,3.9,4.9,3.8c1.3-0.1,2.5-0.7,3.4-1.6
	c0.9-1,10-12.5,12-15.3c0,0,2.7-0.1,4.2-1c0.9-0.5,2.9-1.8,3.8-3.4C50.6,59.7,49.6,57.4,47.6,55.8"/>
<path class="st1" d="M45.4,31.7c-5.1,0-9.2,4.1-9.2,9.2c0,5.1,4.1,9.2,9.2,9.2c5.1,0,9.2-4.1,9.2-9.2C54.5,35.8,50.4,31.7,45.4,31.7
	"/>
</svg>
