<?xml version="1.0" encoding="utf-8"?>
<!-- Generator: Adobe Illustrator 24.1.2, SVG Export Plug-In . SVG Version: 6.00 Build 0)  -->
<svg version="1.1" id="Layer_1" xmlns="http://www.w3.org/2000/svg" xmlns:xlink="http://www.w3.org/1999/xlink" x="0px" y="0px"
	 viewBox="0 0 120 120" style="enable-background:new 0 0 120 120;" xml:space="preserve">
<style type="text/css">
	.st0{fill:#8b2030;}
	.st1{fill:#FFFFFF;}
</style>
<path class="st0" d="M120,60c0,33.1-26.9,60-60,60S0,93.1,0,60C0,26.9,26.9,0,60,0S120,26.9,120,60"/>
<path class="st1" d="M20.7,43.8c0.5,0.9,1.5,1.5,2.6,1.5v-1.6l29.1,2.7c-0.6-3-0.9-5.8-0.7-8L23.3,41l0-1.6c-0.5,0-1,0.1-1.5,0.4
	c-0.7,0.4-1.2,1.1-1.4,1.8H2.9c-0.2,0.5-0.3,1-0.5,1.6h18C20.5,43.4,20.6,43.6,20.7,43.8"/>
<path class="st1" d="M61,22.7c0,0-2.2-0.6-4.9-0.6v12.3l4.9-1.9V22.7z"/>
<path class="st1" d="M60.9,41.4c0.1,1.8,1.3,3.3,2.9,4c2.7,1.1,16.5,6,16.7,6.1c3.3,1.8,14.1,7.9,15.7,8.7c0.3,0.2,0.8,0.3,1.2,0.2
	c0.9-0.2,1.6-1.1,1.4-2c-0.1-0.4-0.3-0.7-0.5-1c-1.3-1.2-13.8-10.5-15.1-11.3c-2.4-1.6-13.9-8.5-15.5-9.2c-0.7-0.3-1.5-0.5-2.4-0.4
	C62.6,36.6,60.7,38.9,60.9,41.4"/>
<path class="st1" d="M54.4,34.6V22.1c-3.9,0.5-4.9,3.1-4.9,6.3C49.4,31.5,50.4,34.2,54.4,34.6"/>
<path class="st1" d="M65.7,56.7c-1.6-0.4-3.7-0.2-4.6,0c-2.4,0.4-16.2,5.3-19.5,6.5c-1.1,0.4-1.8,1.5-2,2.7
	c-1.3,8.7-2.4,17.6-3.3,26.4c0,0.3,0,0.6,0.2,0.9c0.4,0.9,1.5,1.3,2.4,0.9c0.5-0.2,0.8-0.6,0.9-1c0.3-0.9,4.6-16.1,6.4-22.8
	c4.3-0.3,11.9-1.1,16.3-1.9l37,25.6c0.3,0.2,0.7,0.3,1.1,0.3c1,0,1.8-0.9,1.8-1.9c0-0.5-0.2-0.9-0.5-1.2L68.3,58.2
	c-0.4-0.4-0.8-0.7-1.2-0.9C66.7,57.1,66.1,56.8,65.7,56.7"/>
</svg>
